<svg width="139" height="87" viewBox="0 0 139 87" fill="none" xmlns="http://www.w3.org/2000/svg">
<path d="M12.7577 43.0621C9.58614 42.6848 6.20016 42.0498 6.20016 39.2739C6.20016 37.3423 7.80921 35.2795 12.3288 35.2795C15.5104 35.2795 18.155 36.8387 19.2039 38.4244L23.2082 36.3649C20.8993 31.8686 15.9409 30.9194 12.1643 30.9194C6.71877 30.961 1.22341 33.5109 1.22341 39.111C1.22341 45.4374 6.57084 46.9451 12.3488 47.6316C16.9266 48.1236 19.154 49.5648 19.154 52.0349C19.154 54.8441 16.6174 56.5213 12.3687 56.5213C8.46247 56.5213 5.42556 54.849 4.1955 52.0365L0 54.2091C1.94648 58.8434 5.85607 61.0043 12.2856 61.0043C18.0303 61.0043 24.169 58.6473 24.169 52.0332C24.1706 45.7549 19.6078 43.9065 12.7577 43.0621Z" fill="#F9F8FD"/>
<path d="M60.9016 58.4561L60.9215 58.4362L58.488 56.0326L57.5422 55.0834L57.627 54.9604C59.3657 52.4438 60.2998 49.1626 60.2566 45.7184C60.1453 39.0245 56.2672 31.207 45.7054 31.207C41.46 31.207 37.8496 32.58 35.2648 35.1798C32.6036 37.856 31.0893 41.8155 31.1126 46.0442C31.1491 52.8328 34.9939 60.76 45.7037 60.76C48.8802 60.76 51.5947 60.0519 53.7722 58.6556L53.8936 58.5791L57.3909 62.0349H64.4621L60.9016 58.4561ZM54.0166 51.2138L53.9035 51.4282L50.4727 47.9824H43.3234L50.368 54.9821L50.1485 55.0951C48.8304 55.77 47.336 56.1107 45.707 56.1107C39.5085 56.1107 36.1774 51.1107 36.091 46.1705C36.0395 43.0987 37.08 40.2463 38.9467 38.348C40.6538 36.611 42.9278 35.7316 45.707 35.7316C54.1878 35.7316 55.1801 43.2417 55.2815 45.5439C55.363 47.5086 54.9142 49.5216 54.0166 51.2138Z" fill="#F9F8FD"/>
<path d="M129.942 50.833C136.136 49.5764 137.061 44.7476 137.061 41.9816C137.061 37.5135 133.882 32.6847 126.9 32.6415C124.623 32.6415 122.309 32.6315 120.068 32.6215C117.887 32.6115 115.635 32.6016 113.416 32.6016V61.0059H118.474V51.4048H123.945L132.314 61.0059H138.496V60.8829L129.636 50.8962L129.942 50.833ZM118.474 46.8785V37.3306H126.9C130.424 37.3306 132.003 39.7276 132.003 42.1046C132.003 44.4816 130.426 46.8785 126.9 46.8785H118.474Z" fill="#F9F8FD"/>
<path d="M117.179 71.7107C115.832 71.7107 114.567 72.0614 113.469 72.6731C107.634 68.1036 102.574 62.6232 98.4851 56.443L98.4452 56.3832C100.46 53.7186 101.442 50.3459 101.479 46.9849C101.524 42.8127 100.013 38.8582 97.3315 36.1288L97.3348 36.1205C101 29.1075 105.686 22.6763 111.239 17.0396L111.221 17.0263C112.343 17.5366 113.588 17.8225 114.901 17.8225C119.823 17.8225 123.813 13.8332 123.813 8.91127C123.813 3.98938 119.823 0 114.901 0C109.979 0 105.99 3.98938 105.99 8.91127C105.99 11.2168 106.868 13.3145 108.304 14.8953L108.264 14.8654L108.241 14.912C104.65 21.9249 99.9811 28.3296 94.401 33.8914C92.2517 32.6896 89.7234 32.0646 86.9292 32.0646C83.4036 32.0646 80.5562 33.0254 78.3421 34.5829C74.6668 32.3671 71.6948 29.1557 69.7682 25.3209L69.7283 25.2428C70.3417 24.2139 70.6958 23.0104 70.6958 21.7255C70.6958 17.9273 67.6173 14.8488 63.8191 14.8488C60.0209 14.8488 56.9424 17.9273 56.9424 21.7255C56.9424 25.5237 60.0209 28.6022 63.8191 28.6022C64.9926 28.6022 66.0963 28.308 67.0621 27.7893C70.7473 30.0201 73.7244 33.2465 75.6526 37.0979L75.6592 37.1095C73.4135 39.9137 72.3364 43.5324 72.3364 47.0248C72.3364 51.1172 73.7609 55.2313 76.7978 58.0488C74.4674 63.3413 71.0249 68.0704 66.7031 71.9118L66.6864 71.9268C66.1329 71.7506 65.5428 71.6542 64.9311 71.6542C61.7463 71.6542 59.1648 74.2356 59.1648 77.4205C59.1648 80.6054 61.7463 83.1868 64.9311 83.1868C68.116 83.1868 70.6974 80.6054 70.6974 77.4205C70.6974 76.1904 70.3101 75.0502 69.6535 74.1143C72.0488 68.8267 75.498 64.0827 79.7932 60.1764L79.8414 60.1332C81.5984 60.9976 83.6778 61.5378 86.0997 61.6375C86.1695 61.6409 86.2427 61.6392 86.3142 61.6425C86.3474 61.6442 86.3823 61.6442 86.4156 61.6442C86.487 61.6458 86.5618 61.6475 86.6333 61.6492C87.2683 63.7336 87.5858 65.8995 87.5824 68.0754C87.5376 68.0937 87.4927 68.1103 87.4495 68.1302C87.3481 68.1768 87.25 68.2267 87.1536 68.2815C87.1353 68.2915 87.1154 68.2998 87.0954 68.3114C87.0289 68.3497 86.9608 68.3896 86.8959 68.4311C85.7473 69.1791 84.986 70.4723 84.986 71.9451C84.986 74.2606 86.8627 76.1389 89.1799 76.1389C91.497 76.1389 93.3737 74.2622 93.3737 71.9451C93.3737 70.1116 92.1952 68.5574 90.5562 67.9873C90.4332 67.9441 90.3052 67.9075 90.1772 67.8759C90.134 67.8643 90.0891 67.856 90.0459 67.8477C89.9794 67.8327 89.9129 67.8211 89.8464 67.8094C89.8364 67.8078 89.8265 67.8061 89.8165 67.8044C89.7866 67.7995 89.7567 67.7961 89.7267 67.7911C89.2081 65.7466 88.987 63.6372 89.0735 61.5262C89.1666 61.5145 89.2613 61.5062 89.3544 61.4929C89.3793 61.4896 89.4059 61.4863 89.4309 61.4829C89.5505 61.4663 89.6735 61.4514 89.7916 61.4331C92.1885 61.0491 94.1965 60.1814 95.8338 58.9746C101.673 63.481 106.713 68.9381 110.739 75.1166L110.779 75.1781C109.994 76.3783 109.537 77.8111 109.537 79.352C109.537 83.5758 112.962 87 117.185 87C121.409 87 124.833 83.5758 124.833 79.352C124.833 75.1283 121.402 71.7107 117.179 71.7107ZM95.0509 52.703C94.8165 53.1119 94.5589 53.4975 94.273 53.8533C93.7776 54.4716 93.2041 55.0019 92.5658 55.4457C91.0416 56.5029 89.1317 57.0547 86.9275 57.0547C85.2703 57.0547 83.8657 56.7555 82.6788 56.2402C81.4671 55.7116 80.4897 54.9553 79.7167 54.0477C78.096 52.1461 77.3763 49.588 77.3115 47.1162C77.2516 44.7542 77.855 42.5151 78.9953 40.7332C79.3311 40.2096 79.7101 39.7226 80.1339 39.2871C80.5744 38.8366 81.0582 38.441 81.5834 38.1035C83.0761 37.1394 84.8896 36.6358 86.9275 36.6358C88.7061 36.6358 90.2736 36.9981 91.6184 37.7146C92.3664 38.1135 93.0479 38.6188 93.6546 39.2355C93.9272 39.5131 94.1815 39.814 94.4176 40.1315C95.7956 41.9749 96.5469 44.44 96.502 47.0746C96.4655 49.1691 95.9568 51.1189 95.0509 52.703Z" fill="#F9F8FD"/>
</svg>
